<?xml version="1.0" encoding="UTF-8" standalone="no"?>
<svg viewBox="0 0 200 50" version="1.1" xmlns="http://www.w3.org/2000/svg">
    <style>
        path {
            fill: none;
            stroke: white;
            stroke-linecap: round;
            stroke-width: 7;
            stroke-linejoin: round;
        }
    </style>

    <rect fill="#222222" width="200" height="50" />

    <!-- S -->
    <path
        d="M 45,15
           A 10,5 0,0,0 5,15
           C 4,25 25,25 25,25
           C 25,25 46,25 45,35
           A 10,5 0,0,1 5,35
        "
    />

    <!-- T -->
    <path
        d="M 55,5
           L 95,5
           M 75,5
           L 75,45
        "
    />

    <!-- E -->
    <path
        d="M 105,5
           L 145,5
           M 105,5
           L 105,45
           M 105,25
           L 140,25
           M 105,45
           L 145,45
        "
    />

    <!-- P -->
    <path
        d="M 155,5
           L 155,45
           M 155,5
           L 175,5
           C 195,5 195,25 175,25
           L 155,25
        "
    />
</svg>