<?xml version="1.0" encoding="UTF-8" standalone="no"?>
<svg viewBox="0 0 100 100" version="1.1" xmlns="http://www.w3.org/2000/svg">
    <style>
        path {
            fill: none;
            stroke: white;
            stroke-linecap: round;
            stroke-width: 7;
            stroke-linejoin: round;
        }
    </style>

    <rect fill="#222222" width="100" height="100" />

    <!-- S -->
    <path
        d="M 45,15
           a 10,5 0,0,0 -40,0
           c -1,10 20,10 20,10
           c 0,0 21,0 20,10
           a 10,5 0,0,1 -40,0
        "
    />

    <!-- T -->
    <path
        d="M 55,5
           l 40,0
           m -20,0
           l 0,40
        "
    />

    <!-- E -->
    <path
        d="M 5,55
           l 40,0
           m -40,20
           l 30,0
           m -30,20
           l 40,0
           m -40, -40
           l 0,40
        "
    />

    <!-- P -->
    <path
        d="M 55,55
           l 0,40
           m 0,-40
           l 20,0
           c 20,0 20,20 0,20
           l -20,0
        "
    />
</svg>
